<mxfile host="app.diagrams.net" agent="Mozilla/5.0 (Windows NT 10.0; Win64; x64) AppleWebKit/537.36 (KHTML, like Gecko) Chrome/133.0.0.0 Safari/537.36 OPR/118.0.0.0" version="27.0.4">
  <diagram id="C5RBs43oDa-KdzZeNtuy" name="Page-1">
    <mxGraphModel dx="1771" dy="820" grid="1" gridSize="10" guides="1" tooltips="1" connect="1" arrows="1" fold="1" page="1" pageScale="1" pageWidth="827" pageHeight="1169" math="0" shadow="0">
      <root>
        <mxCell id="WIyWlLk6GJQsqaUBKTNV-0" />
        <mxCell id="WIyWlLk6GJQsqaUBKTNV-1" parent="WIyWlLk6GJQsqaUBKTNV-0" />
        <mxCell id="z4QArHc2O1Sj_VhbToGT-0" value="" style="rounded=1;whiteSpace=wrap;html=1;" vertex="1" parent="WIyWlLk6GJQsqaUBKTNV-1">
          <mxGeometry x="160" y="130" width="230" height="100" as="geometry" />
        </mxCell>
        <mxCell id="z4QArHc2O1Sj_VhbToGT-1" value="" style="endArrow=none;html=1;rounded=0;" edge="1" parent="WIyWlLk6GJQsqaUBKTNV-1">
          <mxGeometry width="50" height="50" relative="1" as="geometry">
            <mxPoint x="160" y="160" as="sourcePoint" />
            <mxPoint x="390" y="160" as="targetPoint" />
          </mxGeometry>
        </mxCell>
        <mxCell id="z4QArHc2O1Sj_VhbToGT-59" style="edgeStyle=orthogonalEdgeStyle;rounded=0;orthogonalLoop=1;jettySize=auto;html=1;entryX=0;entryY=0.5;entryDx=0;entryDy=0;" edge="1" parent="WIyWlLk6GJQsqaUBKTNV-1" source="z4QArHc2O1Sj_VhbToGT-3" target="z4QArHc2O1Sj_VhbToGT-50">
          <mxGeometry relative="1" as="geometry" />
        </mxCell>
        <mxCell id="z4QArHc2O1Sj_VhbToGT-3" value="" style="rounded=1;whiteSpace=wrap;html=1;" vertex="1" parent="WIyWlLk6GJQsqaUBKTNV-1">
          <mxGeometry x="560" y="250" width="230" height="100" as="geometry" />
        </mxCell>
        <mxCell id="z4QArHc2O1Sj_VhbToGT-4" value="" style="endArrow=none;html=1;rounded=0;" edge="1" parent="WIyWlLk6GJQsqaUBKTNV-1">
          <mxGeometry width="50" height="50" relative="1" as="geometry">
            <mxPoint x="560" y="280" as="sourcePoint" />
            <mxPoint x="790" y="280" as="targetPoint" />
          </mxGeometry>
        </mxCell>
        <mxCell id="z4QArHc2O1Sj_VhbToGT-6" value="&lt;font style=&quot;font-size: 16px;&quot;&gt;Solicitando login&lt;/font&gt;" style="text;html=1;align=center;verticalAlign=middle;whiteSpace=wrap;rounded=0;" vertex="1" parent="WIyWlLk6GJQsqaUBKTNV-1">
          <mxGeometry x="200" y="130" width="150" height="30" as="geometry" />
        </mxCell>
        <mxCell id="z4QArHc2O1Sj_VhbToGT-9" style="edgeStyle=orthogonalEdgeStyle;rounded=0;orthogonalLoop=1;jettySize=auto;html=1;exitX=1;exitY=0.5;exitDx=0;exitDy=0;exitPerimeter=0;entryX=0.5;entryY=0;entryDx=0;entryDy=0;" edge="1" parent="WIyWlLk6GJQsqaUBKTNV-1" source="z4QArHc2O1Sj_VhbToGT-8" target="z4QArHc2O1Sj_VhbToGT-6">
          <mxGeometry relative="1" as="geometry" />
        </mxCell>
        <mxCell id="z4QArHc2O1Sj_VhbToGT-8" value="" style="strokeWidth=2;html=1;shape=mxgraph.flowchart.start_2;whiteSpace=wrap;" vertex="1" parent="WIyWlLk6GJQsqaUBKTNV-1">
          <mxGeometry x="90" y="70" width="20" height="25" as="geometry" />
        </mxCell>
        <mxCell id="z4QArHc2O1Sj_VhbToGT-10" value="entry/exibirTelaLogin" style="text;html=1;align=center;verticalAlign=middle;whiteSpace=wrap;rounded=0;" vertex="1" parent="WIyWlLk6GJQsqaUBKTNV-1">
          <mxGeometry x="215" y="160" width="120" height="30" as="geometry" />
        </mxCell>
        <mxCell id="z4QArHc2O1Sj_VhbToGT-11" value="exit/ocultarTelaLogin" style="text;html=1;align=center;verticalAlign=middle;whiteSpace=wrap;rounded=0;" vertex="1" parent="WIyWlLk6GJQsqaUBKTNV-1">
          <mxGeometry x="245" y="180" width="60" height="30" as="geometry" />
        </mxCell>
        <mxCell id="z4QArHc2O1Sj_VhbToGT-14" value="&lt;font style=&quot;font-size: 16px;&quot;&gt;Solicitando login&lt;/font&gt;" style="text;html=1;align=center;verticalAlign=middle;whiteSpace=wrap;rounded=0;" vertex="1" parent="WIyWlLk6GJQsqaUBKTNV-1">
          <mxGeometry x="195" y="285" width="150" height="30" as="geometry" />
        </mxCell>
        <mxCell id="z4QArHc2O1Sj_VhbToGT-26" style="edgeStyle=orthogonalEdgeStyle;rounded=0;orthogonalLoop=1;jettySize=auto;html=1;entryX=0.5;entryY=0;entryDx=0;entryDy=0;" edge="1" parent="WIyWlLk6GJQsqaUBKTNV-1" target="z4QArHc2O1Sj_VhbToGT-20">
          <mxGeometry relative="1" as="geometry">
            <mxPoint x="275" y="350" as="sourcePoint" />
            <Array as="points">
              <mxPoint x="275" y="320" />
              <mxPoint x="275" y="320" />
            </Array>
          </mxGeometry>
        </mxCell>
        <mxCell id="z4QArHc2O1Sj_VhbToGT-41" style="edgeStyle=orthogonalEdgeStyle;rounded=0;orthogonalLoop=1;jettySize=auto;html=1;entryX=0;entryY=0.5;entryDx=0;entryDy=0;" edge="1" parent="WIyWlLk6GJQsqaUBKTNV-1" source="z4QArHc2O1Sj_VhbToGT-15" target="z4QArHc2O1Sj_VhbToGT-3">
          <mxGeometry relative="1" as="geometry" />
        </mxCell>
        <mxCell id="z4QArHc2O1Sj_VhbToGT-15" value="&lt;font style=&quot;font-size: 16px;&quot;&gt;Validando Usuário&lt;/font&gt;" style="rounded=1;whiteSpace=wrap;html=1;" vertex="1" parent="WIyWlLk6GJQsqaUBKTNV-1">
          <mxGeometry x="175" y="280" width="200" height="40" as="geometry" />
        </mxCell>
        <mxCell id="z4QArHc2O1Sj_VhbToGT-20" value="&lt;font style=&quot;font-size: 16px;&quot;&gt;Usuário válido&lt;/font&gt;" style="rounded=1;whiteSpace=wrap;html=1;" vertex="1" parent="WIyWlLk6GJQsqaUBKTNV-1">
          <mxGeometry x="175" y="360" width="200" height="40" as="geometry" />
        </mxCell>
        <mxCell id="z4QArHc2O1Sj_VhbToGT-27" value="&lt;font style=&quot;font-size: 10px;&quot;&gt;Login/validarUsuario&lt;/font&gt;" style="text;html=1;align=center;verticalAlign=middle;whiteSpace=wrap;rounded=0;" vertex="1" parent="WIyWlLk6GJQsqaUBKTNV-1">
          <mxGeometry x="300" y="230" width="60" height="30" as="geometry" />
        </mxCell>
        <mxCell id="z4QArHc2O1Sj_VhbToGT-31" value="&lt;font style=&quot;font-size: 16px;&quot;&gt;Falha login&lt;/font&gt;" style="text;html=1;align=center;verticalAlign=middle;whiteSpace=wrap;rounded=0;" vertex="1" parent="WIyWlLk6GJQsqaUBKTNV-1">
          <mxGeometry x="617.5" y="250" width="115" height="30" as="geometry" />
        </mxCell>
        <mxCell id="z4QArHc2O1Sj_VhbToGT-37" value="" style="endArrow=none;html=1;rounded=0;" edge="1" parent="WIyWlLk6GJQsqaUBKTNV-1">
          <mxGeometry width="50" height="50" relative="1" as="geometry">
            <mxPoint x="274.58000000000004" y="260" as="sourcePoint" />
            <mxPoint x="275" y="230" as="targetPoint" />
          </mxGeometry>
        </mxCell>
        <mxCell id="z4QArHc2O1Sj_VhbToGT-38" value="" style="endArrow=classic;html=1;rounded=0;" edge="1" parent="WIyWlLk6GJQsqaUBKTNV-1">
          <mxGeometry width="50" height="50" relative="1" as="geometry">
            <mxPoint x="274.58000000000004" y="260" as="sourcePoint" />
            <mxPoint x="274.58000000000004" y="280" as="targetPoint" />
          </mxGeometry>
        </mxCell>
        <mxCell id="z4QArHc2O1Sj_VhbToGT-39" value="&lt;font style=&quot;font-size: 10px;&quot;&gt;Valido&lt;/font&gt;" style="text;html=1;align=center;verticalAlign=middle;whiteSpace=wrap;rounded=0;" vertex="1" parent="WIyWlLk6GJQsqaUBKTNV-1">
          <mxGeometry x="270" y="320" width="60" height="30" as="geometry" />
        </mxCell>
        <mxCell id="z4QArHc2O1Sj_VhbToGT-44" value="entry/exibirTelaFalhaLogin" style="text;html=1;align=center;verticalAlign=middle;whiteSpace=wrap;rounded=0;" vertex="1" parent="WIyWlLk6GJQsqaUBKTNV-1">
          <mxGeometry x="650" y="285" width="60" height="30" as="geometry" />
        </mxCell>
        <mxCell id="z4QArHc2O1Sj_VhbToGT-45" value="exit/ocultarTelaFalhaLogin" style="text;html=1;align=center;verticalAlign=middle;whiteSpace=wrap;rounded=0;" vertex="1" parent="WIyWlLk6GJQsqaUBKTNV-1">
          <mxGeometry x="645" y="315" width="60" height="30" as="geometry" />
        </mxCell>
        <mxCell id="z4QArHc2O1Sj_VhbToGT-46" value="" style="endArrow=none;html=1;rounded=0;" edge="1" parent="WIyWlLk6GJQsqaUBKTNV-1">
          <mxGeometry width="50" height="50" relative="1" as="geometry">
            <mxPoint x="679.58" y="250" as="sourcePoint" />
            <mxPoint x="680" y="190" as="targetPoint" />
          </mxGeometry>
        </mxCell>
        <mxCell id="z4QArHc2O1Sj_VhbToGT-47" value="" style="endArrow=none;html=1;rounded=0;" edge="1" parent="WIyWlLk6GJQsqaUBKTNV-1">
          <mxGeometry width="50" height="50" relative="1" as="geometry">
            <mxPoint x="600" y="190" as="sourcePoint" />
            <mxPoint x="680" y="190" as="targetPoint" />
          </mxGeometry>
        </mxCell>
        <mxCell id="z4QArHc2O1Sj_VhbToGT-48" value="" style="endArrow=classic;html=1;rounded=0;entryX=1.015;entryY=0.587;entryDx=0;entryDy=0;entryPerimeter=0;" edge="1" parent="WIyWlLk6GJQsqaUBKTNV-1" target="z4QArHc2O1Sj_VhbToGT-0">
          <mxGeometry width="50" height="50" relative="1" as="geometry">
            <mxPoint x="600" y="190" as="sourcePoint" />
            <mxPoint x="400" y="190" as="targetPoint" />
          </mxGeometry>
        </mxCell>
        <mxCell id="z4QArHc2O1Sj_VhbToGT-49" value="Tentar novamente" style="text;html=1;align=center;verticalAlign=middle;whiteSpace=wrap;rounded=0;" vertex="1" parent="WIyWlLk6GJQsqaUBKTNV-1">
          <mxGeometry x="497.5" y="160" width="120" height="30" as="geometry" />
        </mxCell>
        <mxCell id="z4QArHc2O1Sj_VhbToGT-50" value="" style="rounded=1;whiteSpace=wrap;html=1;" vertex="1" parent="WIyWlLk6GJQsqaUBKTNV-1">
          <mxGeometry x="940" y="250" width="230" height="100" as="geometry" />
        </mxCell>
        <mxCell id="z4QArHc2O1Sj_VhbToGT-51" value="" style="endArrow=none;html=1;rounded=0;" edge="1" parent="WIyWlLk6GJQsqaUBKTNV-1">
          <mxGeometry width="50" height="50" relative="1" as="geometry">
            <mxPoint x="940" y="280" as="sourcePoint" />
            <mxPoint x="1170" y="280" as="targetPoint" />
          </mxGeometry>
        </mxCell>
        <mxCell id="z4QArHc2O1Sj_VhbToGT-52" value="&lt;font style=&quot;font-size: 16px;&quot;&gt;Enviando senha&lt;/font&gt;" style="text;html=1;align=center;verticalAlign=middle;whiteSpace=wrap;rounded=0;" vertex="1" parent="WIyWlLk6GJQsqaUBKTNV-1">
          <mxGeometry x="983.75" y="250" width="142.5" height="30" as="geometry" />
        </mxCell>
        <mxCell id="z4QArHc2O1Sj_VhbToGT-53" value="entry/enviarSenha" style="text;html=1;align=center;verticalAlign=middle;whiteSpace=wrap;rounded=0;" vertex="1" parent="WIyWlLk6GJQsqaUBKTNV-1">
          <mxGeometry x="1015" y="287.5" width="80" height="25" as="geometry" />
        </mxCell>
        <mxCell id="z4QArHc2O1Sj_VhbToGT-55" style="edgeStyle=orthogonalEdgeStyle;rounded=0;orthogonalLoop=1;jettySize=auto;html=1;exitX=0.5;exitY=1;exitDx=0;exitDy=0;" edge="1" parent="WIyWlLk6GJQsqaUBKTNV-1" source="z4QArHc2O1Sj_VhbToGT-53" target="z4QArHc2O1Sj_VhbToGT-53">
          <mxGeometry relative="1" as="geometry" />
        </mxCell>
        <mxCell id="z4QArHc2O1Sj_VhbToGT-60" value="Esqueceu a senha" style="text;html=1;align=center;verticalAlign=middle;whiteSpace=wrap;rounded=0;" vertex="1" parent="WIyWlLk6GJQsqaUBKTNV-1">
          <mxGeometry x="810" y="270" width="103" height="30" as="geometry" />
        </mxCell>
        <mxCell id="z4QArHc2O1Sj_VhbToGT-61" value="" style="rounded=1;whiteSpace=wrap;html=1;" vertex="1" parent="WIyWlLk6GJQsqaUBKTNV-1">
          <mxGeometry x="940" y="450" width="230" height="100" as="geometry" />
        </mxCell>
        <mxCell id="z4QArHc2O1Sj_VhbToGT-62" value="" style="endArrow=none;html=1;rounded=0;" edge="1" parent="WIyWlLk6GJQsqaUBKTNV-1">
          <mxGeometry width="50" height="50" relative="1" as="geometry">
            <mxPoint x="940" y="480" as="sourcePoint" />
            <mxPoint x="1170" y="480" as="targetPoint" />
          </mxGeometry>
        </mxCell>
        <mxCell id="z4QArHc2O1Sj_VhbToGT-73" style="edgeStyle=orthogonalEdgeStyle;rounded=0;orthogonalLoop=1;jettySize=auto;html=1;entryX=0.5;entryY=1;entryDx=0;entryDy=0;" edge="1" parent="WIyWlLk6GJQsqaUBKTNV-1" source="z4QArHc2O1Sj_VhbToGT-63" target="z4QArHc2O1Sj_VhbToGT-50">
          <mxGeometry relative="1" as="geometry" />
        </mxCell>
        <mxCell id="z4QArHc2O1Sj_VhbToGT-63" value="&lt;font style=&quot;font-size: 16px;&quot;&gt;Enviar Senha Falhou&lt;/font&gt;" style="text;html=1;align=center;verticalAlign=middle;whiteSpace=wrap;rounded=0;" vertex="1" parent="WIyWlLk6GJQsqaUBKTNV-1">
          <mxGeometry x="971.87" y="450" width="166.25" height="30" as="geometry" />
        </mxCell>
        <mxCell id="z4QArHc2O1Sj_VhbToGT-64" value="entry/exibirTelaFalhaEnvioSenha" style="text;html=1;align=center;verticalAlign=middle;whiteSpace=wrap;rounded=0;" vertex="1" parent="WIyWlLk6GJQsqaUBKTNV-1">
          <mxGeometry x="1015" y="487.5" width="80" height="25" as="geometry" />
        </mxCell>
        <mxCell id="z4QArHc2O1Sj_VhbToGT-65" style="edgeStyle=orthogonalEdgeStyle;rounded=0;orthogonalLoop=1;jettySize=auto;html=1;exitX=0.5;exitY=1;exitDx=0;exitDy=0;" edge="1" source="z4QArHc2O1Sj_VhbToGT-64" target="z4QArHc2O1Sj_VhbToGT-64" parent="WIyWlLk6GJQsqaUBKTNV-1">
          <mxGeometry relative="1" as="geometry" />
        </mxCell>
        <mxCell id="z4QArHc2O1Sj_VhbToGT-88" style="edgeStyle=orthogonalEdgeStyle;rounded=0;orthogonalLoop=1;jettySize=auto;html=1;entryX=0;entryY=0.75;entryDx=0;entryDy=0;" edge="1" parent="WIyWlLk6GJQsqaUBKTNV-1" source="z4QArHc2O1Sj_VhbToGT-66" target="z4QArHc2O1Sj_VhbToGT-0">
          <mxGeometry relative="1" as="geometry" />
        </mxCell>
        <mxCell id="z4QArHc2O1Sj_VhbToGT-66" value="" style="rounded=1;whiteSpace=wrap;html=1;" vertex="1" parent="WIyWlLk6GJQsqaUBKTNV-1">
          <mxGeometry x="940" y="610" width="230" height="100" as="geometry" />
        </mxCell>
        <mxCell id="z4QArHc2O1Sj_VhbToGT-67" value="" style="endArrow=none;html=1;rounded=0;" edge="1" parent="WIyWlLk6GJQsqaUBKTNV-1">
          <mxGeometry width="50" height="50" relative="1" as="geometry">
            <mxPoint x="940" y="640" as="sourcePoint" />
            <mxPoint x="1170" y="640" as="targetPoint" />
          </mxGeometry>
        </mxCell>
        <mxCell id="z4QArHc2O1Sj_VhbToGT-68" value="&lt;span style=&quot;font-size: 16px;&quot;&gt;Enviar Senha Bem Sucedido&lt;/span&gt;" style="text;html=1;align=center;verticalAlign=middle;whiteSpace=wrap;rounded=0;" vertex="1" parent="WIyWlLk6GJQsqaUBKTNV-1">
          <mxGeometry x="943.75" y="610" width="226.25" height="30" as="geometry" />
        </mxCell>
        <mxCell id="z4QArHc2O1Sj_VhbToGT-69" value="entry/exibirTelaSucessoEnvioSenha" style="text;html=1;align=center;verticalAlign=middle;whiteSpace=wrap;rounded=0;" vertex="1" parent="WIyWlLk6GJQsqaUBKTNV-1">
          <mxGeometry x="1015" y="647.5" width="80" height="25" as="geometry" />
        </mxCell>
        <mxCell id="z4QArHc2O1Sj_VhbToGT-70" style="edgeStyle=orthogonalEdgeStyle;rounded=0;orthogonalLoop=1;jettySize=auto;html=1;exitX=0.5;exitY=1;exitDx=0;exitDy=0;" edge="1" source="z4QArHc2O1Sj_VhbToGT-69" target="z4QArHc2O1Sj_VhbToGT-69" parent="WIyWlLk6GJQsqaUBKTNV-1">
          <mxGeometry relative="1" as="geometry" />
        </mxCell>
        <mxCell id="z4QArHc2O1Sj_VhbToGT-71" value="exit/ocularTelaFalhaEnvioSenha" style="text;html=1;align=center;verticalAlign=middle;whiteSpace=wrap;rounded=0;" vertex="1" parent="WIyWlLk6GJQsqaUBKTNV-1">
          <mxGeometry x="1014.99" y="512.5" width="80" height="25" as="geometry" />
        </mxCell>
        <mxCell id="z4QArHc2O1Sj_VhbToGT-74" value="Tentar novamente" style="text;html=1;align=center;verticalAlign=middle;whiteSpace=wrap;rounded=0;" vertex="1" parent="WIyWlLk6GJQsqaUBKTNV-1">
          <mxGeometry x="891" y="380" width="204" height="30" as="geometry" />
        </mxCell>
        <mxCell id="z4QArHc2O1Sj_VhbToGT-77" value="" style="endArrow=none;html=1;rounded=0;" edge="1" parent="WIyWlLk6GJQsqaUBKTNV-1">
          <mxGeometry width="50" height="50" relative="1" as="geometry">
            <mxPoint x="1250" y="510" as="sourcePoint" />
            <mxPoint x="1250" y="330" as="targetPoint" />
            <Array as="points" />
          </mxGeometry>
        </mxCell>
        <mxCell id="z4QArHc2O1Sj_VhbToGT-78" value="" style="endArrow=classic;html=1;rounded=0;" edge="1" parent="WIyWlLk6GJQsqaUBKTNV-1">
          <mxGeometry width="50" height="50" relative="1" as="geometry">
            <mxPoint x="1250" y="511" as="sourcePoint" />
            <mxPoint x="1170" y="511.32" as="targetPoint" />
          </mxGeometry>
        </mxCell>
        <mxCell id="z4QArHc2O1Sj_VhbToGT-79" value="Falhou" style="text;html=1;align=center;verticalAlign=middle;whiteSpace=wrap;rounded=0;" vertex="1" parent="WIyWlLk6GJQsqaUBKTNV-1">
          <mxGeometry x="1190" y="380" width="60" height="30" as="geometry" />
        </mxCell>
        <mxCell id="z4QArHc2O1Sj_VhbToGT-80" value="" style="endArrow=none;html=1;rounded=0;" edge="1" parent="WIyWlLk6GJQsqaUBKTNV-1">
          <mxGeometry width="50" height="50" relative="1" as="geometry">
            <mxPoint x="1170" y="329.5" as="sourcePoint" />
            <mxPoint x="1250" y="329.5" as="targetPoint" />
          </mxGeometry>
        </mxCell>
        <mxCell id="z4QArHc2O1Sj_VhbToGT-82" value="" style="endArrow=none;html=1;rounded=0;" edge="1" parent="WIyWlLk6GJQsqaUBKTNV-1">
          <mxGeometry width="50" height="50" relative="1" as="geometry">
            <mxPoint x="1171" y="299" as="sourcePoint" />
            <mxPoint x="1320" y="300" as="targetPoint" />
          </mxGeometry>
        </mxCell>
        <mxCell id="z4QArHc2O1Sj_VhbToGT-83" value="" style="endArrow=none;html=1;rounded=0;" edge="1" parent="WIyWlLk6GJQsqaUBKTNV-1">
          <mxGeometry width="50" height="50" relative="1" as="geometry">
            <mxPoint x="1320" y="680" as="sourcePoint" />
            <mxPoint x="1320" y="300" as="targetPoint" />
          </mxGeometry>
        </mxCell>
        <mxCell id="z4QArHc2O1Sj_VhbToGT-84" value="" style="endArrow=classic;html=1;rounded=0;" edge="1" parent="WIyWlLk6GJQsqaUBKTNV-1">
          <mxGeometry width="50" height="50" relative="1" as="geometry">
            <mxPoint x="1319" y="680.5" as="sourcePoint" />
            <mxPoint x="1170" y="680" as="targetPoint" />
          </mxGeometry>
        </mxCell>
        <mxCell id="z4QArHc2O1Sj_VhbToGT-85" value="Enviou" style="text;html=1;align=center;verticalAlign=middle;whiteSpace=wrap;rounded=0;" vertex="1" parent="WIyWlLk6GJQsqaUBKTNV-1">
          <mxGeometry x="1330" y="365" width="60" height="30" as="geometry" />
        </mxCell>
        <mxCell id="z4QArHc2O1Sj_VhbToGT-86" value="exit/ocultarTelaSucessoEnvioSenha" style="text;html=1;align=center;verticalAlign=middle;whiteSpace=wrap;rounded=0;" vertex="1" parent="WIyWlLk6GJQsqaUBKTNV-1">
          <mxGeometry x="1025" y="673" width="60" height="30" as="geometry" />
        </mxCell>
        <mxCell id="z4QArHc2O1Sj_VhbToGT-89" value="Senha alterada com sucesso" style="text;html=1;align=center;verticalAlign=middle;whiteSpace=wrap;rounded=0;" vertex="1" parent="WIyWlLk6GJQsqaUBKTNV-1">
          <mxGeometry x="430" y="617.5" width="200" height="30" as="geometry" />
        </mxCell>
        <mxCell id="z4QArHc2O1Sj_VhbToGT-97" style="edgeStyle=orthogonalEdgeStyle;rounded=0;orthogonalLoop=1;jettySize=auto;html=1;exitX=1;exitY=0.5;exitDx=0;exitDy=0;" edge="1" parent="WIyWlLk6GJQsqaUBKTNV-1" source="z4QArHc2O1Sj_VhbToGT-91">
          <mxGeometry relative="1" as="geometry">
            <mxPoint x="500" y="810" as="targetPoint" />
          </mxGeometry>
        </mxCell>
        <mxCell id="z4QArHc2O1Sj_VhbToGT-91" value="" style="rounded=1;whiteSpace=wrap;html=1;" vertex="1" parent="WIyWlLk6GJQsqaUBKTNV-1">
          <mxGeometry x="170" y="760" width="230" height="100" as="geometry" />
        </mxCell>
        <mxCell id="z4QArHc2O1Sj_VhbToGT-92" value="" style="endArrow=none;html=1;rounded=0;" edge="1" parent="WIyWlLk6GJQsqaUBKTNV-1">
          <mxGeometry width="50" height="50" relative="1" as="geometry">
            <mxPoint x="170" y="790" as="sourcePoint" />
            <mxPoint x="400" y="790" as="targetPoint" />
          </mxGeometry>
        </mxCell>
        <mxCell id="z4QArHc2O1Sj_VhbToGT-93" value="&lt;span style=&quot;font-size: 16px;&quot;&gt;Conectando Tela Inicial&lt;/span&gt;" style="text;html=1;align=center;verticalAlign=middle;whiteSpace=wrap;rounded=0;" vertex="1" parent="WIyWlLk6GJQsqaUBKTNV-1">
          <mxGeometry x="173.75" y="760" width="226.25" height="30" as="geometry" />
        </mxCell>
        <mxCell id="z4QArHc2O1Sj_VhbToGT-94" value="entry/exibirTelaInicial&lt;span style=&quot;white-space: pre;&quot;&gt;&#x9;&lt;/span&gt;" style="text;html=1;align=center;verticalAlign=middle;whiteSpace=wrap;rounded=0;" vertex="1" parent="WIyWlLk6GJQsqaUBKTNV-1">
          <mxGeometry x="255" y="798" width="80" height="25" as="geometry" />
        </mxCell>
        <mxCell id="z4QArHc2O1Sj_VhbToGT-95" style="edgeStyle=orthogonalEdgeStyle;rounded=0;orthogonalLoop=1;jettySize=auto;html=1;exitX=0.5;exitY=1;exitDx=0;exitDy=0;" edge="1" source="z4QArHc2O1Sj_VhbToGT-94" target="z4QArHc2O1Sj_VhbToGT-94" parent="WIyWlLk6GJQsqaUBKTNV-1">
          <mxGeometry relative="1" as="geometry" />
        </mxCell>
        <mxCell id="z4QArHc2O1Sj_VhbToGT-96" value="exit/ocultarTelaInicial" style="text;html=1;align=center;verticalAlign=middle;whiteSpace=wrap;rounded=0;" vertex="1" parent="WIyWlLk6GJQsqaUBKTNV-1">
          <mxGeometry x="255" y="823" width="60" height="30" as="geometry" />
        </mxCell>
        <mxCell id="z4QArHc2O1Sj_VhbToGT-105" style="edgeStyle=orthogonalEdgeStyle;rounded=0;orthogonalLoop=1;jettySize=auto;html=1;exitX=1;exitY=0.5;exitDx=0;exitDy=0;" edge="1" parent="WIyWlLk6GJQsqaUBKTNV-1" source="z4QArHc2O1Sj_VhbToGT-98">
          <mxGeometry relative="1" as="geometry">
            <mxPoint x="810" y="810" as="targetPoint" />
          </mxGeometry>
        </mxCell>
        <mxCell id="z4QArHc2O1Sj_VhbToGT-98" value="" style="rounded=1;whiteSpace=wrap;html=1;" vertex="1" parent="WIyWlLk6GJQsqaUBKTNV-1">
          <mxGeometry x="500" y="760.5" width="230" height="100" as="geometry" />
        </mxCell>
        <mxCell id="z4QArHc2O1Sj_VhbToGT-99" value="" style="endArrow=none;html=1;rounded=0;" edge="1" parent="WIyWlLk6GJQsqaUBKTNV-1">
          <mxGeometry width="50" height="50" relative="1" as="geometry">
            <mxPoint x="500" y="790.5" as="sourcePoint" />
            <mxPoint x="730" y="790.5" as="targetPoint" />
          </mxGeometry>
        </mxCell>
        <mxCell id="z4QArHc2O1Sj_VhbToGT-100" value="&lt;span style=&quot;font-size: 16px;&quot;&gt;Conectando Tela Rotas&lt;/span&gt;" style="text;html=1;align=center;verticalAlign=middle;whiteSpace=wrap;rounded=0;" vertex="1" parent="WIyWlLk6GJQsqaUBKTNV-1">
          <mxGeometry x="503.75" y="760.5" width="226.25" height="30" as="geometry" />
        </mxCell>
        <mxCell id="z4QArHc2O1Sj_VhbToGT-101" value="entry/exibirTelaRotas&lt;span style=&quot;white-space: pre;&quot;&gt;&#x9;&lt;/span&gt;" style="text;html=1;align=center;verticalAlign=middle;whiteSpace=wrap;rounded=0;" vertex="1" parent="WIyWlLk6GJQsqaUBKTNV-1">
          <mxGeometry x="585" y="798.5" width="80" height="25" as="geometry" />
        </mxCell>
        <mxCell id="z4QArHc2O1Sj_VhbToGT-102" style="edgeStyle=orthogonalEdgeStyle;rounded=0;orthogonalLoop=1;jettySize=auto;html=1;exitX=0.5;exitY=1;exitDx=0;exitDy=0;" edge="1" source="z4QArHc2O1Sj_VhbToGT-101" target="z4QArHc2O1Sj_VhbToGT-101" parent="WIyWlLk6GJQsqaUBKTNV-1">
          <mxGeometry relative="1" as="geometry" />
        </mxCell>
        <mxCell id="z4QArHc2O1Sj_VhbToGT-103" value="exit/ocultarTelaRotas" style="text;html=1;align=center;verticalAlign=middle;whiteSpace=wrap;rounded=0;" vertex="1" parent="WIyWlLk6GJQsqaUBKTNV-1">
          <mxGeometry x="585" y="823.5" width="60" height="30" as="geometry" />
        </mxCell>
        <mxCell id="z4QArHc2O1Sj_VhbToGT-127" style="edgeStyle=orthogonalEdgeStyle;rounded=0;orthogonalLoop=1;jettySize=auto;html=1;" edge="1" parent="WIyWlLk6GJQsqaUBKTNV-1" source="z4QArHc2O1Sj_VhbToGT-106">
          <mxGeometry relative="1" as="geometry">
            <mxPoint x="1210" y="910" as="targetPoint" />
          </mxGeometry>
        </mxCell>
        <mxCell id="z4QArHc2O1Sj_VhbToGT-106" value="" style="rounded=1;whiteSpace=wrap;html=1;" vertex="1" parent="WIyWlLk6GJQsqaUBKTNV-1">
          <mxGeometry x="1095" y="760" width="230" height="100" as="geometry" />
        </mxCell>
        <mxCell id="z4QArHc2O1Sj_VhbToGT-107" value="" style="endArrow=none;html=1;rounded=0;" edge="1" parent="WIyWlLk6GJQsqaUBKTNV-1">
          <mxGeometry width="50" height="50" relative="1" as="geometry">
            <mxPoint x="1095" y="790" as="sourcePoint" />
            <mxPoint x="1325" y="790" as="targetPoint" />
          </mxGeometry>
        </mxCell>
        <mxCell id="z4QArHc2O1Sj_VhbToGT-108" value="&lt;span style=&quot;font-size: 16px;&quot;&gt;Conectando Tela Mapa&lt;/span&gt;" style="text;html=1;align=center;verticalAlign=middle;whiteSpace=wrap;rounded=0;" vertex="1" parent="WIyWlLk6GJQsqaUBKTNV-1">
          <mxGeometry x="1098.75" y="760" width="226.25" height="30" as="geometry" />
        </mxCell>
        <mxCell id="z4QArHc2O1Sj_VhbToGT-109" value="entry/exibirTelaMapas&lt;span style=&quot;white-space: pre;&quot;&gt;&#x9;&lt;/span&gt;" style="text;html=1;align=center;verticalAlign=middle;whiteSpace=wrap;rounded=0;" vertex="1" parent="WIyWlLk6GJQsqaUBKTNV-1">
          <mxGeometry x="1180" y="798" width="80" height="25" as="geometry" />
        </mxCell>
        <mxCell id="z4QArHc2O1Sj_VhbToGT-110" style="edgeStyle=orthogonalEdgeStyle;rounded=0;orthogonalLoop=1;jettySize=auto;html=1;exitX=0.5;exitY=1;exitDx=0;exitDy=0;" edge="1" source="z4QArHc2O1Sj_VhbToGT-109" target="z4QArHc2O1Sj_VhbToGT-109" parent="WIyWlLk6GJQsqaUBKTNV-1">
          <mxGeometry relative="1" as="geometry" />
        </mxCell>
        <mxCell id="z4QArHc2O1Sj_VhbToGT-111" value="exit/ocultarTelaMapas" style="text;html=1;align=center;verticalAlign=middle;whiteSpace=wrap;rounded=0;" vertex="1" parent="WIyWlLk6GJQsqaUBKTNV-1">
          <mxGeometry x="1180" y="823" width="60" height="30" as="geometry" />
        </mxCell>
        <mxCell id="z4QArHc2O1Sj_VhbToGT-112" style="edgeStyle=orthogonalEdgeStyle;rounded=0;orthogonalLoop=1;jettySize=auto;html=1;entryX=0.448;entryY=-0.04;entryDx=0;entryDy=0;entryPerimeter=0;" edge="1" parent="WIyWlLk6GJQsqaUBKTNV-1" source="z4QArHc2O1Sj_VhbToGT-20" target="z4QArHc2O1Sj_VhbToGT-93">
          <mxGeometry relative="1" as="geometry" />
        </mxCell>
        <mxCell id="z4QArHc2O1Sj_VhbToGT-124" style="edgeStyle=orthogonalEdgeStyle;rounded=0;orthogonalLoop=1;jettySize=auto;html=1;entryX=0;entryY=0.5;entryDx=0;entryDy=0;" edge="1" parent="WIyWlLk6GJQsqaUBKTNV-1" source="z4QArHc2O1Sj_VhbToGT-113" target="z4QArHc2O1Sj_VhbToGT-106">
          <mxGeometry relative="1" as="geometry">
            <Array as="points">
              <mxPoint x="1020" y="810" />
              <mxPoint x="1020" y="810" />
            </Array>
          </mxGeometry>
        </mxCell>
        <mxCell id="z4QArHc2O1Sj_VhbToGT-113" value="&lt;span style=&quot;font-size: 16px;&quot;&gt;Selecionando Rota&lt;/span&gt;" style="rounded=1;whiteSpace=wrap;html=1;" vertex="1" parent="WIyWlLk6GJQsqaUBKTNV-1">
          <mxGeometry x="810" y="791" width="200" height="40" as="geometry" />
        </mxCell>
        <mxCell id="z4QArHc2O1Sj_VhbToGT-125" value="Falhou" style="text;html=1;align=center;verticalAlign=middle;whiteSpace=wrap;rounded=0;" vertex="1" parent="WIyWlLk6GJQsqaUBKTNV-1">
          <mxGeometry x="430" y="270" width="60" height="30" as="geometry" />
        </mxCell>
        <mxCell id="z4QArHc2O1Sj_VhbToGT-158" style="edgeStyle=orthogonalEdgeStyle;rounded=0;orthogonalLoop=1;jettySize=auto;html=1;entryX=0.5;entryY=0;entryDx=0;entryDy=0;" edge="1" parent="WIyWlLk6GJQsqaUBKTNV-1" source="z4QArHc2O1Sj_VhbToGT-128" target="z4QArHc2O1Sj_VhbToGT-152">
          <mxGeometry relative="1" as="geometry" />
        </mxCell>
        <mxCell id="z4QArHc2O1Sj_VhbToGT-128" value="" style="rounded=1;whiteSpace=wrap;html=1;" vertex="1" parent="WIyWlLk6GJQsqaUBKTNV-1">
          <mxGeometry x="1094.99" y="1010" width="230" height="100" as="geometry" />
        </mxCell>
        <mxCell id="z4QArHc2O1Sj_VhbToGT-129" value="" style="endArrow=none;html=1;rounded=0;" edge="1" parent="WIyWlLk6GJQsqaUBKTNV-1">
          <mxGeometry width="50" height="50" relative="1" as="geometry">
            <mxPoint x="1094.99" y="1040" as="sourcePoint" />
            <mxPoint x="1324.99" y="1040" as="targetPoint" />
          </mxGeometry>
        </mxCell>
        <mxCell id="z4QArHc2O1Sj_VhbToGT-130" value="&lt;span style=&quot;font-size: 16px;&quot;&gt;Conectando Tela Posição&lt;/span&gt;" style="text;html=1;align=center;verticalAlign=middle;whiteSpace=wrap;rounded=0;" vertex="1" parent="WIyWlLk6GJQsqaUBKTNV-1">
          <mxGeometry x="1098.74" y="1010" width="226.25" height="30" as="geometry" />
        </mxCell>
        <mxCell id="z4QArHc2O1Sj_VhbToGT-131" value="entry/exibirTelaMapas&lt;span style=&quot;white-space: pre;&quot;&gt;&#x9;&lt;/span&gt;" style="text;html=1;align=center;verticalAlign=middle;whiteSpace=wrap;rounded=0;" vertex="1" parent="WIyWlLk6GJQsqaUBKTNV-1">
          <mxGeometry x="1179.99" y="1048" width="80" height="25" as="geometry" />
        </mxCell>
        <mxCell id="z4QArHc2O1Sj_VhbToGT-132" style="edgeStyle=orthogonalEdgeStyle;rounded=0;orthogonalLoop=1;jettySize=auto;html=1;exitX=0.5;exitY=1;exitDx=0;exitDy=0;" edge="1" source="z4QArHc2O1Sj_VhbToGT-131" target="z4QArHc2O1Sj_VhbToGT-131" parent="WIyWlLk6GJQsqaUBKTNV-1">
          <mxGeometry relative="1" as="geometry" />
        </mxCell>
        <mxCell id="z4QArHc2O1Sj_VhbToGT-133" value="exit/ocultarTelaMapas" style="text;html=1;align=center;verticalAlign=middle;whiteSpace=wrap;rounded=0;" vertex="1" parent="WIyWlLk6GJQsqaUBKTNV-1">
          <mxGeometry x="1179.99" y="1073" width="60" height="30" as="geometry" />
        </mxCell>
        <mxCell id="z4QArHc2O1Sj_VhbToGT-139" style="edgeStyle=orthogonalEdgeStyle;rounded=0;orthogonalLoop=1;jettySize=auto;html=1;entryX=0.5;entryY=0;entryDx=0;entryDy=0;" edge="1" parent="WIyWlLk6GJQsqaUBKTNV-1" source="z4QArHc2O1Sj_VhbToGT-136" target="z4QArHc2O1Sj_VhbToGT-128">
          <mxGeometry relative="1" as="geometry" />
        </mxCell>
        <mxCell id="z4QArHc2O1Sj_VhbToGT-136" value="&lt;span style=&quot;font-size: 16px;&quot;&gt;Solicitando Posição&lt;/span&gt;" style="rounded=1;whiteSpace=wrap;html=1;" vertex="1" parent="WIyWlLk6GJQsqaUBKTNV-1">
          <mxGeometry x="1109.99" y="910" width="200" height="40" as="geometry" />
        </mxCell>
        <mxCell id="z4QArHc2O1Sj_VhbToGT-142" value="" style="endArrow=classic;html=1;rounded=0;" edge="1" parent="WIyWlLk6GJQsqaUBKTNV-1">
          <mxGeometry width="50" height="50" relative="1" as="geometry">
            <mxPoint x="1211.48" y="1110" as="sourcePoint" />
            <mxPoint x="1211.24" y="1180" as="targetPoint" />
          </mxGeometry>
        </mxCell>
        <mxCell id="z4QArHc2O1Sj_VhbToGT-157" style="edgeStyle=orthogonalEdgeStyle;rounded=0;orthogonalLoop=1;jettySize=auto;html=1;" edge="1" parent="WIyWlLk6GJQsqaUBKTNV-1" source="z4QArHc2O1Sj_VhbToGT-144">
          <mxGeometry relative="1" as="geometry">
            <mxPoint x="1020" y="1200" as="targetPoint" />
          </mxGeometry>
        </mxCell>
        <mxCell id="z4QArHc2O1Sj_VhbToGT-144" value="&lt;span style=&quot;font-size: 16px;&quot;&gt;Gerando QR Code&lt;/span&gt;" style="rounded=1;whiteSpace=wrap;html=1;" vertex="1" parent="WIyWlLk6GJQsqaUBKTNV-1">
          <mxGeometry x="1109.99" y="1180" width="200" height="40" as="geometry" />
        </mxCell>
        <mxCell id="z4QArHc2O1Sj_VhbToGT-147" value="Não possui QR Code" style="text;html=1;align=center;verticalAlign=middle;whiteSpace=wrap;rounded=0;" vertex="1" parent="WIyWlLk6GJQsqaUBKTNV-1">
          <mxGeometry x="1190" y="1130" width="170" height="30" as="geometry" />
        </mxCell>
        <mxCell id="z4QArHc2O1Sj_VhbToGT-150" value="" style="rounded=1;whiteSpace=wrap;html=1;" vertex="1" parent="WIyWlLk6GJQsqaUBKTNV-1">
          <mxGeometry x="785" y="1150" width="230" height="100" as="geometry" />
        </mxCell>
        <mxCell id="z4QArHc2O1Sj_VhbToGT-151" value="" style="endArrow=none;html=1;rounded=0;" edge="1" parent="WIyWlLk6GJQsqaUBKTNV-1">
          <mxGeometry width="50" height="50" relative="1" as="geometry">
            <mxPoint x="785" y="1180" as="sourcePoint" />
            <mxPoint x="1015" y="1180" as="targetPoint" />
          </mxGeometry>
        </mxCell>
        <mxCell id="z4QArHc2O1Sj_VhbToGT-152" value="&lt;span style=&quot;font-size: 16px;&quot;&gt;Exibindo Tela QR Code&lt;/span&gt;" style="text;html=1;align=center;verticalAlign=middle;whiteSpace=wrap;rounded=0;" vertex="1" parent="WIyWlLk6GJQsqaUBKTNV-1">
          <mxGeometry x="788.75" y="1150" width="226.25" height="30" as="geometry" />
        </mxCell>
        <mxCell id="z4QArHc2O1Sj_VhbToGT-153" value="entry/exibirTelaQRCode&lt;span style=&quot;white-space: pre;&quot;&gt;&#x9;&lt;/span&gt;" style="text;html=1;align=center;verticalAlign=middle;whiteSpace=wrap;rounded=0;" vertex="1" parent="WIyWlLk6GJQsqaUBKTNV-1">
          <mxGeometry x="870" y="1188" width="80" height="25" as="geometry" />
        </mxCell>
        <mxCell id="z4QArHc2O1Sj_VhbToGT-154" style="edgeStyle=orthogonalEdgeStyle;rounded=0;orthogonalLoop=1;jettySize=auto;html=1;exitX=0.5;exitY=1;exitDx=0;exitDy=0;" edge="1" source="z4QArHc2O1Sj_VhbToGT-153" target="z4QArHc2O1Sj_VhbToGT-153" parent="WIyWlLk6GJQsqaUBKTNV-1">
          <mxGeometry relative="1" as="geometry" />
        </mxCell>
        <mxCell id="z4QArHc2O1Sj_VhbToGT-155" value="exit/ocultarTelaQRCode" style="text;html=1;align=center;verticalAlign=middle;whiteSpace=wrap;rounded=0;" vertex="1" parent="WIyWlLk6GJQsqaUBKTNV-1">
          <mxGeometry x="870" y="1213" width="60" height="30" as="geometry" />
        </mxCell>
        <mxCell id="z4QArHc2O1Sj_VhbToGT-159" value="Possui QR Code gerado" style="text;html=1;align=center;verticalAlign=middle;whiteSpace=wrap;rounded=0;" vertex="1" parent="WIyWlLk6GJQsqaUBKTNV-1">
          <mxGeometry x="903" y="1030" width="180" height="30" as="geometry" />
        </mxCell>
      </root>
    </mxGraphModel>
  </diagram>
</mxfile>
